<?xml version="1.0" encoding="UTF-8"?>
<svg id="_レイヤー_1" data-name="レイヤー 1" xmlns="http://www.w3.org/2000/svg" width="754.18" height="150.6" viewBox="0 0 754.18 150.6">
  <path d="M31.6,150.2c-19.2,0-31.6-8.8-31.6-25.4C0,76,107.2,5.8,141.4,5.8c12.4,0,16.2,9.4,16.2,14.6,0,20.4-59.8,53.8-70.8,53.8-2,0-3.2-1.2-3.2-2.8,0-1,.4-1.6,3.4-2.6,26-9.6,64.6-40,64.6-50.8,0-3-3-4.8-8.8-4.8C105.8,13.2,6.4,82.6,6.4,126.2c0,14.4,13,18,24.4,18,46.6,0,74-40.4,78.6-40.4.6,0,1.6.6,1.6,1.8,0,2.4-1.2,3-5.2,7.6-15.6,17.6-46.4,37-74.2,37Z" fill="#231815"/>
  <path d="M142.6,98.6c0,13-25.4,45.6-41.8,45.6-6.4,0-9.8-4.8-9.8-10.8,0-16.6,26.8-45.4,42.4-45.4,2.2,0,6,.8,6,4.6,2.4.4,3.2,3.8,3.2,6ZM133.2,94c-13.8,0-36.8,29.2-36.8,40,0,2.8,1.6,4.8,4.6,4.8,10.6,0,34.4-25,35.8-44-.8-.2-1.8-.8-3.6-.8Z" fill="#231815"/>
  <path d="M188,92.6c5.2,0,8.6,2.8,8.6,7.8,0,14-27.4,47.2-43.8,47.2-6.6,0-10.6-5.4-10.6-10.8,0-12.4,21-45.4,40.6-72,18.2-24.6,39.6-49.4,46.2-49.4,1.8,0,5.6,1.8,5.6,6.2,0,12.2-23.2,43.2-49.6,71.4,1-.2,2-.4,3-.4ZM152.2,124.6c-2.4,5.4-3.8,9.6-3.8,12.6,0,4.4,3,5.4,5,5.4,11.4,0,37.8-32.2,37.8-41.6,0-2.2-1.6-2.4-2.8-2.4-5.2,0-6.2,3.2-8.8,3.2-1,0-1.8-.2-2.2-.8-8.6,8.6-17.2,16.8-25.2,23.6ZM228.4,22.8c0-.8-.2-1.2-.6-1.2-4.4,0-50,56.6-70,92.2,27.6-26.8,70.6-79.6,70.6-91Z" fill="#231815"/>
  <path d="M197.99,146.6c-3.8,0-7.4-4.6-7.4-10,0-16,32.6-47.6,44.8-47.6,3.4,0,7,2.6,7,8,0,2-.6,3.8-1.2,5.6,1.8,1.2,2.8,3,2.8,4.2s-.8.8-5.2,5.8c-4.8,5.4-9.6,12.2-9.6,18,0,3.8,2.2,6,5.4,6,10.8,0,24.6-12,26.4-12,.6,0,1.2.4,1.2,1.6,0,5.2-17.6,15.2-28.8,15.2-7.4,0-9.8-4.6-9.8-9,0-2,.6-4.8,1.6-7-10.4,10.6-21.4,21.2-27.2,21.2ZM231.39,110.4c0-.6.4-1.2,1.2-2,4.4-4.8,5.2-8,5.2-10.2,0-2.4-1-3.6-2.8-3.6-9.2,0-38.2,30.2-38.2,43.2,0,2,.8,2.8,1.8,2.8,4.4,0,20-14.2,33.6-28.4-.4-.4-.8-1-.8-1.8Z" fill="#231815"/>
  <path d="M265.19,132.2c0,5.2,1.4,7.2,7,7.2,16.6,0,33-14.8,35.2-14.8,1,0,1.2.6,1.2,1.6,0,5.8-22,18-36.6,18-8.8,0-13.2-3.4-13.2-11.8,0-28.2,66.8-107,77-107,3,0,6.2,1.8,6.2,6.8,0,15-40,62.8-75.8,93.4-.8,2.4-1,4.6-1,6.6ZM335.99,33.2c0-1-.2-1.4-.6-1.4-4.8,0-52,53.4-66.2,85.6,35.6-35.2,66.8-74.8,66.8-84.2Z" fill="#231815"/>
  <path d="M559.39,18.4c0-5.8-6.6-11.2-26.6-11.2-51,0-104,35.4-104,56.2,0,24.8,74.8,31.8,74.8,61,0,18.6-30.6,25.8-62.2,25.8-42.6,0-88.8-13.2-88.8-39,0-8.6,5-15.6,7.8-15.6,1,0,1.8,1,1.8,2,0,2.6-4.6,5-4.6,11.6,0,21.6,48,32.6,87.4,32.6,27.2,0,50.2-5.2,50.2-17.2,0-21.8-74.2-28.2-74.2-61,0-27.8,54-63.6,110.8-63.6,31.4,0,34.2,11,34.2,17.8,0,26.4-43.4,45.8-56.8,45.8-6,0-10.4-4-10.4-6.8,0-1,.6-1.8,1.8-1.8.6,0,1.6.4,2.8,1.4,28.2-.6,56-26.4,56-38Z" fill="#231815"/>
  <path d="M538.79,80.2c-4.8,0-13.8.4-19.2.4-2,0-3.2-.8-3.2-2,0-2.2,1.8-2.8,3.8-2.8,4.2,0,16.6-.2,30.6-.2,8-10.6,15.8-20,21-26.2,5.2-6.2,6.8-7.4,8-7.4,2.2,0,3.6,1.4,3.6,3.2,0,1.4-1,2-6,7.4-4.8,5.2-11.8,13.6-19,23,11.2-.2,22.6-.2,31.8-.2,2,0,3.6.6,3.6,2.4,0,2.4-2,2.6-4.8,2.6-4.4,0-18.2,0-34.2-.2-16.4,22-33.6,48-33.6,56.2,0,2.6,1.2,2.8,2.6,2.8,6.6,0,18.4-10.8,36.8-30,3.2-3.4,5.2-5.4,6-5.4,1,0,2.2.8,2.2,2,0,.8-1.2,2.8-5.4,7.2-9.2,9.6-29.6,31.2-40,31.2-3.8,0-7-2.4-7-7.6,0-11.6,15.4-35.6,31-56.4h-8.6Z" fill="#231815"/>
  <path d="M554.19,144.2c-2.8,0-7.8-3-7.8-7.6,0-13.4,24.6-40,25.2-40,1,0,3.6,3.2,3.6,4.6,0,.6-22.8,27.6-22.8,35.4,0,1.4.6,2.2,2.2,2.2,10,0,42.6-41.4,45.2-41.4,1.6,0,3.4,2.8,3.4,3.8,0,1.4-.8,1.8-5.4,7-8.6,9.6-15,17.2-15,23.8,0,3,1.4,4.2,3,4.2,10.4,0,37.2-32.4,39.2-32.4,1,0,2.4.6,2.4,2,0,1.2-1.2,2.6-5.4,7.2-9,9.6-27.2,27.8-36,27.8-5.8,0-9-5.2-9-10.4,0-2,.4-3.6,1.2-5-8.8,9.6-18.6,18.8-24,18.8Z" fill="#231815"/>
  <path d="M606.99,150.6c-5,0-8.6-4.4-8.6-9.8,0-15,30.6-47.6,47-47.6,4.4,0,6.4,2.4,7,5.6,14.4-21.8,33.2-47.4,44.2-62.4,3.6-5,6.4-8.6,7.8-8.6,1.8,0,2.6,1.8,2.6,3.4,0,3.2-1.4,5.6-6.4,12.2-5.2,6.8-61.4,77-61.4,91.4,0,3.6,1.4,4.6,3.6,4.6,5.6,0,17-10.8,35.8-30.2,3.2-3.2,5-5.4,5.8-5.4,1.4,0,2.4.8,2.4,2,0,1-.8,2.2-5.4,7.2-13.4,14.8-28.8,31.2-41,31.2-5.2,0-7.4-4-7.4-8.6,0-2.2.4-4.6,1.4-7-13.4,14-22,22-27.4,22ZM648.99,104.2c0-3-.6-4.8-3.4-4.8-12.8,0-40.8,30-40.8,42.6,0,2.2,1,3,2.2,3,5.2,0,23-17.6,37-33.2l5-7.6Z" fill="#231815"/>
  <path d="M677.39,144.2c-5.6,0-7.8-4.6-7.8-9.2,0-14.6,18-38.4,21.6-38.4,2.2,0,3.4,1.6,3.4,3.6,0,1.4-.2,2.6-5.4,8.6-5.6,6.4-14,19.4-14,25.2,0,3,1.6,4,3.2,4,7.4,0,26.6-18.8,36-28.8,3.2-3.4,5.2-5.4,6-5.4s2.2.6,2.2,2c0,1.2-1.2,2.6-5.4,7.2-9.4,10-30.4,31.2-39.8,31.2ZM709.19,61c0-3.4,2.2-7,6.4-7,2.6,0,5.2,1.8,5.2,5.6,0,3.6-2.2,7.2-6.2,7.2s-5.4-2.8-5.4-5.8Z" fill="#231815"/>
  <path d="M754.18,98.6c0,13-25.4,45.6-41.8,45.6-6.4,0-9.8-4.8-9.8-10.8,0-16.6,26.8-45.4,42.4-45.4,2.2,0,6,.8,6,4.6,2.4.4,3.2,3.8,3.2,6ZM744.78,94c-13.8,0-36.8,29.2-36.8,40,0,2.8,1.6,4.8,4.6,4.8,10.6,0,34.4-25,35.8-44-.8-.2-1.8-.8-3.6-.8Z" fill="#231815"/>
</svg>